<?xml version="1.0" encoding="UTF-8"?>
<svg id="_Шар_1" data-name="Шар 1" xmlns="http://www.w3.org/2000/svg" viewBox="0 0 1000 1000">
  <defs>
    <style>
      .cls-1 {
        fill: #ccd500;
      }
    </style>
  </defs>
  <g>
    <path class="cls-1" d="M533.3,170.07c3.34.77,19.72,8.29,39.68,17.95v-.13c35.24,17.42,78.83,40.15,83.44,43.93,4.11,3.38,7.79,7.62,10.83,12.37,14.61-5.65,30.82-8.46,48.67-8.46,26.58,0,48.44,5.85,65.56,17.52,17.08,11.7,29.25,28.55,36.47,50.61l174.04-31.12c-10.6-37.64-26.51-68.8-47.61-93.37-21.1-24.54-47.67-42.66-79.67-54.39-31.99-11.67-80.27-17.52-144.79-17.52s-120.12,9.46-159.7,28.32c-20.86,10-39.62,21.93-56.3,35.8,9.46-3.34,20.13-3.78,29.35-1.5Z"/>
    <path class="cls-1" d="M721.12,368.38v121.49h120.72v54.93c-23.64,14.07-44.63,24.04-62.98,29.85-18.29,5.92-37.51,8.83-57.74,8.83-42.46,0-75.59-13.57-99.39-40.62-23.7-27.11-35.6-72.24-35.6-135.46,0-11.67.47-22.77,1.37-33.16-4.95,1.07-8.66,1.77-9.49,1.84-9.06.33-31.53-16.92-34.67-15.85-4.48,1.47-21.03,36.57-38.85,75.72-18.59,41.05-38.61,86.65-47.2,102.43-.6.7-1.07,1.54-1.6,2.31.4.8.9,1.57,1.6,2.34,7.32,3.81,26.41,10,30.62,16.15,1.91,2.74,20.86,45.53,21.16,48.14v.07c-5.95,10.23-11.1,21.26-16.92,31.69.84.77,1.6,1.54,2.44,2.21,14.48,13.47,30.62,24.97,48.31,34.57,43.69,23.64,100.16,35.44,169.46,35.44,56.33,0,105.01-6.55,145.99-19.72,41.05-13.1,88.26-37.88,141.65-74.25v-248.93h-278.88Z"/>
    <path class="cls-1" d="M499.34,341.64c.2-1.81-.7-3.58-2.31-5.48-1-.53-2.27-1.1-3.64-1.74-8.69-3.74-23.33-9.13-27.05-14.41-1.91-2.74-20.86-45.53-21.1-48.17-.37-4.05,25.21-57.13,37.78-80.77,2.11-3.88,3.74-6.99,4.95-8.96-5.72-8.09-12.5-15.68-20.26-22.87-30.15-27.88-73.35-41.82-129.64-41.82H.31v583.94h311.48c12.67,0,37.81-2.41,75.49-7.29-1.97-.94-4.01-1.91-6.02-2.91v.1c-35.2-17.38-78.83-40.15-83.38-43.96-11.53-9.46-19.83-25.68-18.65-41.05.13-1.97,6.28-15.24,14.01-31.09-5.82.53-12.14.77-18.89.77h-92.04v-118.35h91.63c31.59,0,53.69,5.25,66.33,15.75,10.53,8.76,16.68,19.96,18.35,33.46,8.86-2.01,16.31-3.61,17.62-3.68,5.48-.23,15.91,6.02,24,10.76,6.59,2.27,11.33,3.51,12.87,2.14l4.25-8.49,49.11-99.39,32.86-66.49ZM319.51,331.91c-11,9.73-30.56,14.54-58.74,14.54h-78.46v-110.72h79.67c27.35,0,46.54,4.78,57.54,14.31,11.03,9.59,16.58,22.9,16.58,39.88,0,18.29-5.55,32.29-16.58,41.99Z"/>
  </g>
  <g>
    <path class="cls-1" d="M22.15,891.06c-2.43,0-4.27-.63-5.54-1.9-1.27-1.27-1.9-3.11-1.9-5.54v-101.7c0-2.42.63-4.27,1.9-5.54,1.27-1.27,3.11-1.9,5.54-1.9h39.19c8.05,0,14.85,1.19,20.42,3.56,5.57,2.37,9.84,5.82,12.82,10.34,2.98,4.52,4.46,10.03,4.46,16.54,0,7.28-2.12,13.34-6.37,18.19-4.25,4.85-10,8.05-17.28,9.59v-2.31c8.27.99,14.74,3.97,19.43,8.93,4.68,4.96,7.03,11.52,7.03,19.68,0,10.36-3.36,18.3-10.09,23.81-6.73,5.51-16.21,8.27-28.44,8.27H22.15ZM27.94,826.57h31.42c8.6,0,15.13-1.76,19.6-5.29,4.46-3.53,6.7-8.6,6.7-15.21s-2.23-11.99-6.7-15.46c-4.47-3.47-11-5.21-19.6-5.21h-31.42v41.18ZM27.94,880.14h34.06c8.82,0,15.43-1.76,19.84-5.29,4.41-3.53,6.61-8.87,6.61-16.04s-2.21-12.65-6.61-16.12c-4.41-3.47-11.03-5.21-19.84-5.21H27.94v42.66Z"/>
    <path class="cls-1" d="M143.19,891.06c-2.43,0-4.27-.63-5.54-1.9-1.27-1.27-1.9-3.11-1.9-5.54v-101.7c0-2.42.63-4.27,1.9-5.54,1.27-1.27,3.11-1.9,5.54-1.9h61.52c1.87,0,3.31.5,4.3,1.49.99.99,1.49,2.37,1.49,4.13,0,1.88-.5,3.31-1.49,4.3-.99.99-2.43,1.49-4.3,1.49h-55.73v40.35h52.26c1.87,0,3.31.47,4.3,1.41.99.94,1.49,2.34,1.49,4.22s-.5,3.31-1.49,4.3c-.99.99-2.43,1.49-4.3,1.49h-52.26v42h55.73c1.87,0,3.31.5,4.3,1.49.99.99,1.49,2.37,1.49,4.13,0,1.88-.5,3.31-1.49,4.3-.99.99-2.43,1.49-4.3,1.49h-61.52Z"/>
    <path class="cls-1" d="M238.94,892.21c-1.76,0-3.17-.41-4.22-1.24-1.05-.83-1.65-1.93-1.82-3.31-.17-1.38.14-2.95.91-4.71l45.48-103.52c.99-2.2,2.18-3.77,3.56-4.71,1.38-.94,2.89-1.41,4.55-1.41s3.17.47,4.55,1.41c1.38.94,2.51,2.51,3.39,4.71l45.64,103.52c.88,1.76,1.24,3.36,1.07,4.8-.17,1.43-.74,2.54-1.74,3.31s-2.37,1.16-4.13,1.16c-1.98,0-3.58-.52-4.8-1.57-1.21-1.05-2.21-2.56-2.98-4.55l-12.24-28.28,6.61,3.47h-71.11l6.78-3.47-12.07,28.28c-.99,2.1-2.04,3.64-3.14,4.63-1.1.99-2.54,1.49-4.3,1.49ZM287.22,790.35l-26.62,62.67-3.97-3.14h61.18l-3.64,3.14-26.62-62.67h-.33Z"/>
    <path class="cls-1" d="M408.93,892.54c-5.18,0-10.25-.44-15.21-1.32-4.96-.88-9.57-2.15-13.81-3.8-4.25-1.65-8.08-3.75-11.49-6.28-1.32-.99-2.23-2.12-2.73-3.39-.5-1.27-.61-2.54-.33-3.8.27-1.27.83-2.34,1.65-3.22.83-.88,1.84-1.38,3.06-1.49,1.21-.11,2.53.28,3.97,1.16,4.96,3.53,10.25,6.09,15.88,7.69,5.62,1.6,11.96,2.4,19.02,2.4,9.92,0,17.28-1.85,22.08-5.54,4.8-3.69,7.19-8.57,7.19-14.63,0-4.96-1.74-8.85-5.21-11.66-3.47-2.81-9.29-5.04-17.45-6.7l-17.2-3.47c-10.36-2.2-18.11-5.81-23.23-10.83-5.13-5.02-7.69-11.71-7.69-20.09,0-5.18,1.05-9.89,3.14-14.14,2.09-4.24,5.02-7.88,8.76-10.91,3.75-3.03,8.21-5.37,13.39-7.03,5.18-1.65,10.91-2.48,17.2-2.48,6.95,0,13.42.97,19.43,2.89,6.01,1.93,11.44,4.82,16.29,8.68,1.21.99,2.04,2.12,2.48,3.39.44,1.27.5,2.48.17,3.64-.33,1.16-.91,2.12-1.74,2.89-.83.77-1.88,1.21-3.14,1.32-1.27.11-2.67-.33-4.22-1.32-4.41-3.31-8.99-5.71-13.73-7.19-4.74-1.49-9.98-2.23-15.71-2.23s-10.89.88-15.13,2.65c-4.25,1.76-7.55,4.33-9.92,7.69-2.37,3.36-3.55,7.25-3.55,11.66,0,5.29,1.62,9.48,4.88,12.57,3.25,3.09,8.57,5.35,15.96,6.78l17.2,3.64c11.13,2.32,19.37,5.82,24.72,10.5,5.35,4.69,8.02,11.05,8.02,19.1,0,4.85-.99,9.32-2.98,13.4-1.98,4.08-4.85,7.58-8.6,10.5-3.75,2.92-8.27,5.15-13.56,6.7s-11.25,2.31-17.86,2.31Z"/>
    <path class="cls-1" d="M517.57,892.21c-2.1,0-3.75-.64-4.96-1.9-1.21-1.27-1.82-3-1.82-5.21v-98.89h-37.21c-1.98,0-3.53-.55-4.63-1.65-1.1-1.1-1.65-2.54-1.65-4.3,0-1.87.55-3.31,1.65-4.3,1.1-.99,2.65-1.49,4.63-1.49h88.14c1.98,0,3.53.5,4.63,1.49,1.1.99,1.65,2.43,1.65,4.3s-.55,3.34-1.65,4.38c-1.1,1.05-2.65,1.57-4.63,1.57h-37.21v98.89c0,2.21-.58,3.94-1.74,5.21-1.16,1.27-2.89,1.9-5.21,1.9Z"/>
    <path class="cls-1" d="M696.16,892.54c-12.46,0-22.96-2.37-31.5-7.11-8.55-4.74-15.02-11.58-19.43-20.51-4.41-8.93-6.61-19.62-6.61-32.08,0-9.26,1.24-17.58,3.72-24.97,2.48-7.38,6.12-13.64,10.91-18.77,4.8-5.13,10.64-9.09,17.53-11.91,6.89-2.81,14.69-4.22,23.4-4.22,6.95,0,13.67.97,20.17,2.89,6.5,1.93,12.29,4.99,17.36,9.18,1.32.99,2.15,2.1,2.48,3.31.33,1.21.3,2.43-.08,3.64-.39,1.21-.99,2.23-1.82,3.06s-1.88,1.3-3.14,1.41c-1.27.11-2.56-.27-3.89-1.16-4.52-3.53-9.32-6.09-14.39-7.69-5.07-1.6-10.69-2.4-16.87-2.4-8.82,0-16.29,1.88-22.41,5.62-6.12,3.75-10.75,9.15-13.89,16.21-3.14,7.06-4.71,15.66-4.71,25.8,0,15.43,3.61,27.23,10.83,35.39,7.22,8.16,18.11,12.24,32.66,12.24,5.29,0,10.47-.52,15.54-1.57,5.07-1.05,9.87-2.51,14.39-4.38l-2.98,7.77v-41.18h-23.65c-1.98,0-3.47-.5-4.46-1.49-.99-.99-1.49-2.31-1.49-3.97,0-1.76.5-3.08,1.49-3.97.99-.88,2.48-1.32,4.46-1.32h29.6c1.87,0,3.31.5,4.3,1.49.99.99,1.49,2.43,1.49,4.3v43.16c0,1.65-.28,3.03-.83,4.13-.55,1.1-1.49,1.93-2.81,2.48-4.63,1.88-10.17,3.45-16.62,4.71-6.45,1.27-12.71,1.9-18.77,1.9Z"/>
    <path class="cls-1" d="M807.12,892.21c-2.21,0-3.89-.64-5.04-1.9-1.16-1.27-1.74-3.06-1.74-5.37v-54.24l2.98,9.43-41.51-57.22c-.99-1.43-1.46-2.89-1.41-4.38.05-1.49.63-2.73,1.74-3.72,1.1-.99,2.53-1.49,4.3-1.49,1.54,0,2.92.36,4.13,1.07,1.21.72,2.31,1.85,3.31,3.39l35.22,48.62h-3.47l35.22-48.62c1.21-1.65,2.37-2.81,3.47-3.47,1.1-.66,2.42-.99,3.97-.99,1.76,0,3.14.47,4.13,1.41.99.94,1.51,2.15,1.57,3.64.05,1.49-.47,3.06-1.57,4.71l-41.34,57.05,2.81-9.43v54.24c0,4.85-2.26,7.28-6.78,7.28Z"/>
    <path class="cls-1" d="M886.66,892.21c-1.98,0-3.53-.58-4.63-1.74-1.1-1.16-1.65-2.78-1.65-4.88v-105.67c0-2.2.55-3.86,1.65-4.96,1.1-1.1,2.65-1.65,4.63-1.65,1.76,0,3.17.36,4.22,1.07,1.05.72,2.01,1.9,2.89,3.56l45.31,85.33h-4.96l45.14-85.33c.88-1.65,1.82-2.84,2.81-3.56.99-.72,2.42-1.07,4.3-1.07s3.36.55,4.47,1.65c1.1,1.1,1.65,2.76,1.65,4.96v105.67c0,2.1-.53,3.72-1.57,4.88-1.05,1.16-2.62,1.74-4.71,1.74-1.98,0-3.53-.58-4.63-1.74-1.1-1.16-1.65-2.78-1.65-4.88v-92.93h3.97l-41.34,77.56c-.77,1.43-1.57,2.45-2.4,3.06-.83.61-2.01.91-3.56.91s-2.76-.33-3.64-.99c-.88-.66-1.65-1.65-2.31-2.98l-41.84-77.72h3.97v93.1c0,2.1-.52,3.72-1.57,4.88-1.05,1.16-2.56,1.74-4.55,1.74Z"/>
  </g>
</svg>